<svg xmlns="http://www.w3.org/2000/svg" viewBox="0 0 1200 800">
  <!-- Background -->
  <rect width="1200" height="800" fill="#001133" />
  <circle cx="600" cy="230" r="140" fill="#001133" stroke="#3a9de0" stroke-width="2" stroke-dasharray="5,5" />
  <circle cx="600" cy="600" r="140" fill="#001133" stroke="#e99f40" stroke-width="2" stroke-dasharray="5,5" />
  
  <!-- Title -->
  <text x="600" y="50" font-family="Arial" font-size="36" fill="white" text-anchor="middle" font-weight="bold">Enhanced Earth Station Hub for Interference Mitigation</text>
  
  <!-- Sections -->
  <text x="600" y="95" font-family="Arial" font-size="24" fill="#3a9de0" text-anchor="middle" font-weight="bold">SIGNAL PROCESSING CHAIN</text>
  <text x="600" y="450" font-family="Arial" font-size="24" fill="#e99f40" text-anchor="middle" font-weight="bold">AI/ML INTERFERENCE MITIGATION SYSTEM</text>
  
  <!-- Antenna Subsystem Section -->
  <rect x="50" y="120" width="220" height="220" fill="#001133" stroke="#4fc3f7" stroke-width="2" rx="10" />
  <text x="160" y="145" font-family="Arial" font-size="18" fill="#4fc3f7" text-anchor="middle" font-weight="bold">Antenna Subsystem</text>
  
  <!-- RF Equipment Section -->
  <rect x="300" y="120" width="220" height="220" fill="#001133" stroke="#ef5350" stroke-width="2" rx="10" />
  <text x="410" y="145" font-family="Arial" font-size="18" fill="#ef5350" text-anchor="middle" font-weight="bold">RF Equipment</text>
  
  <!-- Ground Communications Equipment -->
  <rect x="550" y="120" width="220" height="220" fill="#001133" stroke="#7e57c2" stroke-width="2" rx="10" />
  <text x="660" y="145" font-family="Arial" font-size="18" fill="#7e57c2" text-anchor="middle" font-weight="bold">Ground Communications</text>
  
  <!-- Terrestrial Interface Equipment -->
  <rect x="800" y="120" width="350" height="220" fill="#001133" stroke="#26a69a" stroke-width="2" rx="10" />
  <text x="975" y="145" font-family="Arial" font-size="18" fill="#26a69a" text-anchor="middle" font-weight="bold">Terrestrial Interface Equipment</text>
  
  <!-- Antenna Components -->
  <rect x="70" y="160" width="70" height="40" fill="#4fc3f7" rx="5" />
  <text x="105" y="185" font-family="Arial" font-size="12" fill="white" text-anchor="middle">Antenna Feeder</text>
  
  <rect x="180" y="160" width="70" height="40" fill="#ef5350" rx="5" />
  <text x="215" y="185" font-family="Arial" font-size="12" fill="white" text-anchor="middle">Diplexer</text>
  
  <rect x="70" y="220" width="70" height="40" fill="#26a69a" rx="5" />
  <text x="105" y="245" font-family="Arial" font-size="12" fill="white" text-anchor="middle">Control Motors</text>
  
  <rect x="180" y="220" width="70" height="40" fill="#26a69a" rx="5" />
  <text x="215" y="245" font-family="Arial" font-size="12" fill="white" text-anchor="middle">Error Signals</text>
  
  <rect x="70" y="280" width="70" height="40" fill="#26a69a" rx="5" />
  <text x="105" y="305" font-family="Arial" font-size="12" fill="white" text-anchor="middle">Command Signals</text>
  
  <rect x="180" y="280" width="70" height="40" fill="#26a69a" rx="5" />
  <text x="215" y="305" font-family="Arial" font-size="12" fill="white" text-anchor="middle">Tracking</text>
  
  <!-- Additional component for tracking -->
  <rect x="120" y="340" width="80" height="40" fill="#26a69a" stroke="#4fc3f7" stroke-width="1" rx="5" stroke-dasharray="5,2" />
  <text x="160" y="365" font-family="Arial" font-size="12" fill="white" text-anchor="middle">Tracking Programming</text>
  
  <!-- RF Equipment Components -->
  <rect x="320" y="190" width="80" height="40" fill="#ef5350" rx="5" />
  <text x="360" y="215" font-family="Arial" font-size="12" fill="white" text-anchor="middle">Power Amplifiers</text>
  
  <rect x="420" y="160" width="80" height="40" fill="#ef5350" rx="5" />
  <text x="460" y="185" font-family="Arial" font-size="12" fill="white" text-anchor="middle">Combiner</text>
  
  <rect x="320" y="280" width="80" height="40" fill="#4fc3f7" rx="5" />
  <text x="360" y="305" font-family="Arial" font-size="12" fill="white" text-anchor="middle">Low Noise Amplifiers</text>
  
  <rect x="420" y="280" width="80" height="40" fill="#ef5350" rx="5" />
  <text x="460" y="305" font-family="Arial" font-size="12" fill="white" text-anchor="middle">Divider</text>
  
  <!-- Ground Communications Components -->
  <rect x="570" y="160" width="80" height="40" fill="#7e57c2" rx="5" />
  <text x="610" y="185" font-family="Arial" font-size="12" fill="white" text-anchor="middle">Up Converter</text>
  
  <rect x="670" y="160" width="80" height="40" fill="#ef5350" rx="5" />
  <text x="710" y="185" font-family="Arial" font-size="12" fill="white" text-anchor="middle">Modulator</text>
  
  <rect x="570" y="280" width="80" height="40" fill="#7e57c2" rx="5" />
  <text x="610" y="305" font-family="Arial" font-size="12" fill="white" text-anchor="middle">Down Converter</text>
  
  <rect x="670" y="280" width="80" height="40" fill="#ef5350" rx="5" />
  <text x="710" y="305" font-family="Arial" font-size="12" fill="white" text-anchor="middle">Demodulator</text>
  

  <!-- Terrestrial Interface Components -->
  <rect x="820" y="160" width="90" height="40" fill="#ff7043" rx="5" />
  <text x="865" y="185" font-family="Arial" font-size="12" fill="white" text-anchor="middle">Signal Processing Equipment</text>
  
  <rect x="930" y="160" width="90" height="40" fill="#7e57c2" rx="5" />
  <text x="975" y="185" font-family="Arial" font-size="12" fill="white" text-anchor="middle">Multiplexer/ Demultiplexer</text>
  
  <rect x="1040" y="160" width="90" height="40" fill="#26a69a" rx="5" />
  <text x="1085" y="185" font-family="Arial" font-size="12" fill="white" text-anchor="middle">Connection to Terrestrial Network</text>
  
  <rect x="820" y="280" width="90" height="40" fill="#ff7043" rx="5" />
  <text x="865" y="305" font-family="Arial" font-size="12" fill="white" text-anchor="middle">Signal Processing Equipment</text>
  
  <rect x="930" y="280" width="90" height="40" fill="#7e57c2" rx="5" />
  <text x="975" y="305" font-family="Arial" font-size="12" fill="white" text-anchor="middle">Multiplexer/ Demultiplexer</text>
  
  <rect x="1040" y="280" width="90" height="40" fill="#26a69a" rx="5" />
  <text x="1085" y="305" font-family="Arial" font-size="12" fill="white" text-anchor="middle">Connection to Terrestrial Network</text>
  
  <!-- AI/ML Interference Mitigation System -->
  <rect x="50" y="480" width="220" height="160" fill="#001133" stroke="#ffa726" stroke-width="2" rx="10" />
  <text x="160" y="505" font-family="Arial" font-size="18" fill="#ffa726" text-anchor="middle" font-weight="bold">AI/ML Engine</text>
  
  <rect x="320" y="480" width="220" height="160" fill="#001133" stroke="#66bb6a" stroke-width="2" rx="10" />
  <text x="430" y="505" font-family="Arial" font-size="18" fill="#66bb6a" text-anchor="middle" font-weight="bold">Channel Characterization</text>
  
  <rect x="590" y="480" width="220" height="160" fill="#001133" stroke="#42a5f5" stroke-width="2" rx="10" />
  <text x="700" y="505" font-family="Arial" font-size="18" fill="#42a5f5" text-anchor="middle" font-weight="bold">System Configuration</text>
  
  <rect x="860" y="480" width="220" height="160" fill="#001133" stroke="#ec407a" stroke-width="2" rx="10" />
  <text x="970" y="505" font-family="Arial" font-size="18" fill="#ec407a" text-anchor="middle" font-weight="bold">Knowledge Base</text>
  
  <!-- AI/ML Engine Components -->
  <rect x="80" y="530" width="160" height="40" fill="#ffa726" rx="5" />
  <text x="160" y="555" font-family="Arial" font-size="12" fill="white" text-anchor="middle">Interference Classification</text>
  
  <rect x="80" y="580" width="160" height="40" fill="#ffa726" rx="5" />
  <text x="160" y="605" font-family="Arial" font-size="12" fill="white" text-anchor="middle">Pattern Prediction</text>
  
  <!-- Channel Characterization Components -->
  <rect x="350" y="530" width="160" height="40" fill="#66bb6a" rx="5" />
  <text x="430" y="555" font-family="Arial" font-size="12" fill="white" text-anchor="middle">Signal Quality Analysis</text>
  
  <rect x="350" y="580" width="160" height="40" fill="#66bb6a" rx="5" />
  <text x="430" y="605" font-family="Arial" font-size="12" fill="white" text-anchor="middle">Channel Condition Monitoring</text>
  
  <!-- System Configuration Components -->
  <rect x="620" y="530" width="160" height="40" fill="#42a5f5" rx="5" />
  <text x="700" y="555" font-family="Arial" font-size="12" fill="white" text-anchor="middle">Parameter Generation</text>
  
  <rect x="620" y="580" width="160" height="40" fill="#42a5f5" rx="5" />
  <text x="700" y="605" font-family="Arial" font-size="12" fill="white" text-anchor="middle">Adaptive Algorithm Selection</text>
  
  <!-- Knowledge Base Components -->
  <rect x="890" y="530" width="160" height="40" fill="#ec407a" rx="5" />
  <text x="970" y="555" font-family="Arial" font-size="12" fill="white" text-anchor="middle">Interference Pattern DB</text>
  
  <rect x="890" y="580" width="160" height="40" fill="#ec407a" rx="5" />
  <text x="970" y="605" font-family="Arial" font-size="12" fill="white" text-anchor="middle">Historical Performance Data</text>
  
  <!-- Operational Phases -->
  <rect x="50" y="680" width="260" height="60" fill="#001133" stroke="#42a5f5" stroke-width="2" rx="10" />
  <text x="180" y="720" font-family="Arial" font-size="16" fill="white" text-anchor="middle">PHASE 1: Detection & Classification</text>
  
  <rect x="330" y="680" width="260" height="60" fill="#001133" stroke="#66bb6a" stroke-width="2" rx="10" />
  <text x="460" y="720" font-family="Arial" font-size="16" fill="white" text-anchor="middle">PHASE 2: Evaluation & Decision</text>
  
  <rect x="610" y="680" width="260" height="60" fill="#001133" stroke="#ffa726" stroke-width="2" rx="10" />
  <text x="740" y="720" font-family="Arial" font-size="16" fill="white" text-anchor="middle">PHASE 3: Active Mitigation</text>
  
  <rect x="890" y="680" width="260" height="60" fill="#001133" stroke="#ec407a" stroke-width="2" rx="10" />
  <text x="1020" y="720" font-family="Arial" font-size="16" fill="white" text-anchor="middle">PHASE 4: Monitoring & Adaptation</text>
  
  <!-- Connection arrows -->
  <!-- Horizontal flow arrows -->
  <!-- RF Chain -->
  <line x1="140" y1="180" x2="170" y2="180" stroke="white" stroke-width="2" stroke-dasharray="5,3"/>
  <polygon points="175,180 165,175 165,185" fill="white"/>
  
  <line x1="250" y1="180" x2="310" y2="180" stroke="white" stroke-width="2" stroke-dasharray="5,3"/>
  <polygon points="315,180 305,175 305,185" fill="white"/>
  
  <line x1="400" y1="180" x2="410" y2="180" stroke="white" stroke-width="2" stroke-dasharray="5,3"/>
  <polygon points="415,180 405,175 405,185" fill="white"/>
  
  <line x1="500" y1="180" x2="560" y2="180" stroke="white" stroke-width="2" stroke-dasharray="5,3"/>
  <polygon points="565,180 555,175 555,185" fill="white"/>
  
  <line x1="650" y1="180" x2="660" y2="180" stroke="white" stroke-width="2" stroke-dasharray="5,3"/>
  <polygon points="665,180 655,175 655,185" fill="white"/>
  
  <line x1="750" y1="180" x2="810" y2="180" stroke="white" stroke-width="2" stroke-dasharray="5,3"/>
  <polygon points="815,180 805,175 805,185" fill="white"/>
  
  <line x1="910" y1="180" x2="920" y2="180" stroke="white" stroke-width="2" stroke-dasharray="5,3"/>
  <polygon points="925,180 915,175 915,185" fill="white"/>
  
  <line x1="1020" y1="180" x2="1030" y2="180" stroke="white" stroke-width="2" stroke-dasharray="5,3"/>
  <polygon points="1035,180 1025,175 1025,185" fill="white"/>
  
  <!-- Return path -->
  <line x1="1040" y1="300" x2="1030" y2="300" stroke="white" stroke-width="2" stroke-dasharray="5,3"/>
  <polygon points="1025,300 1035,295 1035,305" fill="white"/>
  
  <line x1="930" y1="300" x2="920" y2="300" stroke="white" stroke-width="2" stroke-dasharray="5,3"/>
  <polygon points="915,300 925,295 925,305" fill="white"/>
  
  <line x1="820" y1="300" x2="750" y2="300" stroke="white" stroke-width="2" stroke-dasharray="5,3"/>
  <polygon points="745,300 755,295 755,305" fill="white"/>
  
  <line x1="670" y1="300" x2="660" y2="300" stroke="white" stroke-width="2" stroke-dasharray="5,3"/>
  <polygon points="655,300 665,295 665,305" fill="white"/>
  
  <line x1="570" y1="300" x2="500" y2="300" stroke="white" stroke-width="2" stroke-dasharray="5,3"/>
  <polygon points="495,300 505,295 505,305" fill="white"/>
  
  <line x1="420" y1="300" x2="410" y2="300" stroke="white" stroke-width="2" stroke-dasharray="5,3"/>
  <polygon points="405,300 415,295 415,305" fill="white"/>
  
  <line x1="320" y1="300" x2="260" y2="300" stroke="white" stroke-width="2" stroke-dasharray="5,3"/>
  <polygon points="255,300 265,295 265,305" fill="white"/>
  
  <line x1="180" y1="300" x2="170" y2="300" stroke="white" stroke-width="2" stroke-dasharray="5,3"/>
  <polygon points="165,300 175,295 175,305" fill="white"/>
  
  <!-- Vertical connections -->
  <line x1="105" y1="200" x2="105" y2="210" stroke="white" stroke-width="2" stroke-dasharray="5,3"/>
  <polygon points="105,215 100,205 110,205" fill="white"/>
  
  <line x1="105" y1="260" x2="105" y2="270" stroke="white" stroke-width="2" stroke-dasharray="5,3"/>
  <polygon points="105,275 100,265 110,265" fill="white"/>
  
  <line x1="160" y1="320" x2="160" y2="330" stroke="white" stroke-width="2" stroke-dasharray="5,3"/>
  <polygon points="160,335 155,325 165,325" fill="white"/>
  
  <!-- AI/ML Components Flow -->
  <line x1="240" y1="550" x2="340" y2="550" stroke="#ffa726" stroke-width="2" stroke-dasharray="5,3"/>
  <polygon points="345,550 335,545 335,555" fill="#ffa726"/>
  
  <line x1="510" y1="550" x2="610" y2="550" stroke="#66bb6a" stroke-width="2" stroke-dasharray="5,3"/>
  <polygon points="615,550 605,545 605,555" fill="#66bb6a"/>
  
  <line x1="780" y1="550" x2="880" y2="550" stroke="#42a5f5" stroke-width="2" stroke-dasharray="5,3"/>
  <polygon points="885,550 875,545 875,555" fill="#42a5f5"/>
  
  <line x1="880" y1="590" x2="780" y2="590" stroke="#ec407a" stroke-width="2" stroke-dasharray="5,3"/>
  <polygon points="775,590 785,585 785,595" fill="#ec407a"/>
  
  <line x1="610" y1="590" x2="510" y2="590" stroke="#42a5f5" stroke-width="2" stroke-dasharray="5,3"/>
  <polygon points="505,590 515,585 515,595" fill="#42a5f5"/>
  
  <line x1="340" y1="590" x2="240" y2="590" stroke="#66bb6a" stroke-width="2" stroke-dasharray="5,3"/>
  <polygon points="235,590 245,585 245,595" fill="#66bb6a"/>
  
  <!-- Connection between segments -->
  <line x1="700" y1="320" x2="700" y2="470" stroke="#e99f40" stroke-width="3" stroke-dasharray="10,5"/>
  <polygon points="700,475 695,465 705,465" fill="#e99f40"/>
  
  <!-- Signal Processing to AI/ML -->
  <line x1="900" y1="320" x2="900" y2="470" stroke="#3a9de0" stroke-width="3" stroke-dasharray="10,5"/>
  <polygon points="900,475 895,465 905,465" fill="#3a9de0"/>
  
  <!-- Legend -->
  <rect x="1080" y="365" width="110" height="100" fill="rgba(0,17,51,0.7)" stroke="white" stroke-width="1" rx="5" />
  <text x="1135" y="385" font-family="Arial" font-size="14" fill="white" text-anchor="middle" font-weight="bold">Legend</text>
  
  <line x1="1090" y1="405" x2="1110" y2="405" stroke="white" stroke-width="2" />
  <text x="1140" y="410" font-family="Arial" font-size="12" fill="white">Signal</text>
  
  <line x1="1090" y1="425" x2="1110" y2="425" stroke="#3a9de0" stroke-width="2" stroke-dasharray="5,3" />
  <text x="1140" y1="430" font-family="Arial" font-size="12" fill="#3a9de0">Telemetry</text>
  
  <line x1="1090" y1="445" x2="1110" y2="445" stroke="#e99f40" stroke-width="2" stroke-dasharray="5,3" />
  <text x="1140" y1="450" font-family="Arial" font-size="12" fill="#e99f40">Commands</text>
  
  <!-- Processing labels -->
  <text x="120" y="400" font-family="Arial" font-size="14" fill="white" text-anchor="middle">Radio Frequency</text>
  <text x="550" y="400" font-family="Arial" font-size="14" fill="white" text-anchor="middle">Intermediate Frequency</text>
  <text x="950" y="400" font-family="Arial" font-size="14" fill="white" text-anchor="middle">Baseband</text>
</svg>